<?xml version="1.0" standalone="no"?>
<!DOCTYPE svg PUBLIC "-//W3C//DTD SVG 1.1//EN" "http://www.w3.org/Graphics/SVG/1.1/DTD/svg11.dtd" >
<svg xmlns="http://www.w3.org/2000/svg">
<metadata>Generated by IcoMoon</metadata>
<defs>
<font id="schoolinsites" horiz-adv-x="1024">
<font-face units-per-em="1024" ascent="877.7142857142858" descent="-146.28571428571428" />
<missing-glyph horiz-adv-x="1024" />
<glyph unicode="&#x20;" horiz-adv-x="256" d="" />
<glyph unicode="&#xe900;" glyph-name="column" d="M924.444 807.111c24.178 0 42.667-18.489 42.667-42.667v-824.889c0-24.178-18.489-42.667-42.667-42.667h-824.889c-24.178 0-42.667 18.489-42.667 42.667v824.889c0 24.178 18.489 42.667 42.667 42.667h824.889zM924.444 864h-824.889c-54.044 0-99.556-44.089-99.556-99.556v-824.889c0-55.467 45.511-99.556 99.556-99.556h824.889c54.044 0 99.556 44.089 99.556 99.556v824.889c0 55.467-45.511 99.556-99.556 99.556v0z" />
<glyph unicode="&#xe901;" glyph-name="column1" d="M924.444 864h-824.889c-54.044 0-99.556-45.511-99.556-99.556v-824.889c0-55.467 45.511-99.556 99.556-99.556h824.889c55.467 0 99.556 44.089 99.556 99.556v824.889c0 54.044-44.089 99.556-99.556 99.556zM99.556-103.111c-24.178 0-42.667 18.489-42.667 42.667v824.889c0 24.178 18.489 42.667 42.667 42.667h384v-910.222h-384zM967.111-60.444c0-24.178-18.489-42.667-42.667-42.667h-384v910.222h384c24.178 0 42.667-18.489 42.667-42.667v-824.889z" />
<glyph unicode="&#xe902;" glyph-name="column2" d="M924.444 864h-824.889c-54.044 0-99.556-45.511-99.556-99.556v-824.889c0-55.467 45.511-99.556 99.556-99.556h824.889c55.467 0 99.556 44.089 99.556 99.556v824.889c0 54.044-44.089 99.556-99.556 99.556zM99.556-103.111c-24.178 0-42.667 18.489-42.667 42.667v824.889c0 24.178 18.489 42.667 42.667 42.667h223.289v-910.222h-223.289zM379.733-103.111v910.222h265.956v-910.222h-265.956zM967.111-60.444c0-24.178-18.489-42.667-42.667-42.667h-223.289v910.222h223.289c24.178 0 42.667-18.489 42.667-42.667v-824.889z" />
<glyph unicode="&#xe903;" glyph-name="column3" d="M924.444 864h-824.889c-54.044 0-99.556-45.511-99.556-99.556v-824.889c0-55.467 45.511-99.556 99.556-99.556h824.889c55.467 0 99.556 44.089 99.556 99.556v824.889c0 54.044-44.089 99.556-99.556 99.556zM99.556-103.111c-24.178 0-42.667 18.489-42.667 42.667v824.889c0 24.178 18.489 42.667 42.667 42.667h139.378v-910.222h-139.378zM295.822-103.111v910.222h184.889v-910.222h-184.889zM537.6-103.111v910.222h184.889v-910.222h-184.889zM967.111-60.444c0-24.178-18.489-42.667-42.667-42.667h-145.067v910.222h145.067c24.178 0 42.667-18.489 42.667-42.667v-824.889z" />
<glyph unicode="&#xe904;" glyph-name="column4" d="M924.444 864h-824.889c-54.044 0-99.556-45.511-99.556-99.556v-824.889c0-55.467 45.511-99.556 99.556-99.556h824.889c55.467 0 99.556 44.089 99.556 99.556v824.889c0 54.044-44.089 99.556-99.556 99.556zM99.556-103.111c-24.178 0-42.667 18.489-42.667 42.667v824.889c0 24.178 18.489 42.667 42.667 42.667h86.756v-910.222h-86.756zM243.2-103.111v910.222h136.533v-910.222h-136.533zM436.622-103.111v910.222h136.533v-910.222h-136.533zM630.044-103.111v910.222h136.533v-910.222h-136.533zM967.111-60.444c0-24.178-18.489-42.667-42.667-42.667h-100.978v910.222h100.978c24.178 0 42.667-18.489 42.667-42.667v-824.889z" />
<glyph unicode="&#xe905;" glyph-name="column5" d="M924.444 864h-824.889c-54.044 0-99.556-45.511-99.556-99.556v-824.889c0-55.467 45.511-99.556 99.556-99.556h824.889c55.467 0 99.556 44.089 99.556 99.556v824.889c0 54.044-44.089 99.556-99.556 99.556zM99.556-103.111c-24.178 0-42.667 18.489-42.667 42.667v824.889c0 24.178 18.489 42.667 42.667 42.667h49.778v-910.222h-49.778zM206.222-103.111v910.222h103.822v-910.222h-103.822zM366.933-103.111v910.222h103.822v-910.222h-103.822zM529.067-103.111v910.222h103.822v-910.222h-103.822zM689.778-103.111v910.222h103.822v-910.222h-103.822zM967.111-60.444c0-24.178-18.489-42.667-42.667-42.667h-73.956v910.222h73.956c24.178 0 42.667-18.489 42.667-42.667v-824.889z" />
<glyph unicode="&#xe906;" glyph-name="80column" d="M924.444 864h-824.889c-55.467 0-99.556-45.511-99.556-99.556v-824.889c0-55.467 44.089-99.556 99.556-99.556h824.889c55.467 0 99.556 44.089 99.556 99.556v824.889c0 54.044-45.511 99.556-99.556 99.556zM99.556-103.111c-24.178 0-42.667 18.489-42.667 42.667v824.889c0 24.178 18.489 42.667 42.667 42.667h51.2v-910.222h-51.2zM967.111-60.444c0-24.178-18.489-42.667-42.667-42.667h-716.8v910.222h716.8c24.178 0 42.667-18.489 42.667-42.667v-824.889z" />
<glyph unicode="&#xe907;" glyph-name="75column" d="M924.444 864h-824.889c-54.044 0-99.556-45.511-99.556-99.556v-824.889c0-55.467 45.511-99.556 99.556-99.556h824.889c55.467 0 99.556 44.089 99.556 99.556v824.889c0 54.044-44.089 99.556-99.556 99.556zM99.556-103.111c-24.178 0-42.667 18.489-42.667 42.667v824.889c0 24.178 18.489 42.667 42.667 42.667h93.867v-910.222h-93.867zM967.111-60.444c0-24.178-18.489-42.667-42.667-42.667h-674.133v910.222h674.133c24.178 0 42.667-18.489 42.667-42.667v-824.889z" />
<glyph unicode="&#xe908;" glyph-name="66column" d="M924.444 864h-824.889c-54.044 0-99.556-45.511-99.556-99.556v-824.889c0-55.467 45.511-99.556 99.556-99.556h824.889c55.467 0 99.556 44.089 99.556 99.556v824.889c0 54.044-44.089 99.556-99.556 99.556zM99.556-103.111c-24.178 0-42.667 18.489-42.667 42.667v824.889c0 24.178 18.489 42.667 42.667 42.667h182.044v-910.222h-182.044zM967.111-60.444c0-24.178-18.489-42.667-42.667-42.667h-585.956v910.222h585.956c24.178 0 42.667-18.489 42.667-42.667v-824.889z" />
<glyph unicode="&#xe909;" glyph-name="33column" d="M924.444 864h-824.889c-54.044 0-99.556-45.511-99.556-99.556v-824.889c0-55.467 45.511-99.556 99.556-99.556h824.889c55.467 0 99.556 44.089 99.556 99.556v824.889c0 54.044-44.089 99.556-99.556 99.556zM99.556-103.111c-24.178 0-42.667 18.489-42.667 42.667v824.889c0 24.178 18.489 42.667 42.667 42.667h588.8v-910.222h-588.8zM967.111-60.444c0-24.178-18.489-42.667-42.667-42.667h-179.2v910.222h179.2c24.178 0 42.667-18.489 42.667-42.667v-824.889z" />
<glyph unicode="&#xe90a;" glyph-name="25column" d="M924.444 864h-824.889c-55.467 0-99.556-45.511-99.556-99.556v-824.889c0-55.467 44.089-99.556 99.556-99.556h824.889c54.044 0 99.556 44.089 99.556 99.556v824.889c0 54.044-45.511 99.556-99.556 99.556zM99.556-103.111c-24.178 0-42.667 18.489-42.667 42.667v824.889c0 24.178 18.489 42.667 42.667 42.667h625.778v-910.222h-625.778zM967.111-60.444c0-24.178-18.489-42.667-42.667-42.667h-142.222v910.222h142.222c24.178 0 42.667-18.489 42.667-42.667v-824.889z" />
<glyph unicode="&#xe90b;" glyph-name="Announcements" horiz-adv-x="1152" d="M1152 416c0 41.792-26.72 77.332-64 90.516v229.484c0 70.692-57.308 128-128 128-129.97-112-284.062-256-544-256h-320c-53.020 0-96-42.98-96-96v-192c0-53.020 42.98-96 96-96h86.526c-37.484-129.3 4.958-232.758 37.628-334.88 3.404-10.64 10.406-19.786 19.844-25.76 41.56-26.31 136.71-31.314 187.546-10.302 32.092 13.266 39.92 54.846 15.044 79.074-37.016 36.052-60.272 73.82-39.59 121.716 1.275 2.873 2.018 6.224 2.018 9.749 0 5.067-1.534 9.775-4.164 13.685l0.056-0.088c-32.618 49.358-7.162 124.214 57.034 145.504 234.864-14.472 379.24-148.86 502.058-254.698 70.692 0 128 57.308 128 128v229.484c37.28 13.184 64 48.724 64 90.516zM960 136.29c-109.218 89.958-250.066 185.88-448 209.964v139.494c197.934 24.084 338.782 120.004 448 209.964v-559.422z" />
<glyph unicode="&#xe90c;" glyph-name="Assignments" d="M416 600h576c17.6 0 32 14.4 32 32v80c0 17.6-14.4 32-32 32h-576c-17.6 0-32-14.4-32-32v-80c0-17.6 14.4-32 32-32zM416 280h576c17.6 0 32 14.4 32 32v80c0 17.6-14.4 32-32 32h-576c-17.6 0-32-14.4-32-32v-80c0-17.6 14.4-32 32-32zM416-40h576c17.6 0 32 14.4 32 32v80c0 17.6-14.4 32-32 32h-576c-17.6 0-32-14.4-32-32v-80c0-17.6 14.4-32 32-32zM128 128c-53 0-97.2-43-97.2-96s44.2-96 97.2-96 96 43 96 96-43 96-96 96zM313 726l-175.6-175.6c-9.4-9.4-25.8-9.4-35.2 0l-95.2 94.8c-9.4 9.4-9.4 24.6 0 34l31.4 31.4c9.4 9.4 24.6 9.4 34 0l45.4-44.2 127.4 126.6c9.4 9.4 24.6 9.4 34 0l34-33c9.2-9.4 9.2-24.6-0.2-34zM313 406.8l-175.8-175.8c-9.4-9.4-25.8-9.4-35.2 0l-95 95c-9.4 9.4-9.4 24.6 0 34l31.4 31.4c9.4 9.4 24.6 9.4 34 0l45.4-44.2 127.4 127.4c9.4 9.4 24.6 9.4 34 0l34-34c9.2-9.2 9.2-24.4-0.2-33.8z" />
<glyph unicode="&#xe90d;" glyph-name="calendar" horiz-adv-x="896" d="M296 288h-80c-13.2 0-24 10.8-24 24v80c0 13.2 10.8 24 24 24h80c13.2 0 24-10.8 24-24v-80c0-13.2-10.8-24-24-24zM512 312v80c0 13.2-10.8 24-24 24h-80c-13.2 0-24-10.8-24-24v-80c0-13.2 10.8-24 24-24h80c13.2 0 24 10.8 24 24zM704 312v80c0 13.2-10.8 24-24 24h-80c-13.2 0-24-10.8-24-24v-80c0-13.2 10.8-24 24-24h80c13.2 0 24 10.8 24 24zM512 120v80c0 13.2-10.8 24-24 24h-80c-13.2 0-24-10.8-24-24v-80c0-13.2 10.8-24 24-24h80c13.2 0 24 10.8 24 24zM320 120v80c0 13.2-10.8 24-24 24h-80c-13.2 0-24-10.8-24-24v-80c0-13.2 10.8-24 24-24h80c13.2 0 24 10.8 24 24zM704 120v80c0 13.2-10.8 24-24 24h-80c-13.2 0-24-10.8-24-24v-80c0-13.2 10.8-24 24-24h80c13.2 0 24 10.8 24 24zM896 640v-704c0-53-43-96-96-96h-704c-53 0-96 43-96 96v704c0 53 43 96 96 96h96v104c0 13.2 10.8 24 24 24h80c13.2 0 24-10.8 24-24v-104h256v104c0 13.2 10.8 24 24 24h80c13.2 0 24-10.8 24-24v-104h96c53 0 96-43 96-96zM800-52v596h-704v-596c0-6.6 5.4-12 12-12h680c6.6 0 12 5.4 12 12z" />
<glyph unicode="&#xe90e;" glyph-name="Collapse-Down" horiz-adv-x="640" d="M286 159.4l-272 272c-18.8 18.8-18.8 49.2 0 67.8l45.2 45.2c18.8 18.8 49.2 18.8 67.8 0l192.8-192.8 192.8 192.8c18.8 18.8 49.2 18.8 67.8 0l45.2-45.2c18.8-18.8 18.8-49.2 0-67.8l-272-272c-18.4-18.8-48.8-18.8-67.6 0z" />
<glyph unicode="&#xe90f;" glyph-name="Expand-up" horiz-adv-x="640" d="M354 544.6l272-272c18.8-18.8 18.8-49.2 0-67.8l-45.2-45.2c-18.8-18.8-49.2-18.8-67.8 0l-193 192.6-192.8-192.8c-18.8-18.8-49.2-18.8-67.8 0l-45.4 45.2c-18.8 18.8-18.8 49.2 0 67.8l272 272c18.8 19 49.2 19 68 0.2z" />
<glyph unicode="&#xe910;" glyph-name="file" horiz-adv-x="768" d="M448 592v272h-400c-26.6 0-48-21.4-48-48v-928c0-26.6 21.4-48 48-48h672c26.6 0 48 21.4 48 48v656h-272c-26.4 0-48 21.6-48 48zM768 620.2v-12.2h-256v256h12.2c12.8 0 25-5 34-14l195.8-196c9-9 14-21.2 14-33.8z" />
<glyph unicode="&#xe911;" glyph-name="file-audio" horiz-adv-x="768" d="M448 592v272h-400c-26.6 0-48-21.4-48-48v-928c0-26.6 21.4-48 48-48h672c26.6 0 48 21.4 48 48v656h-272c-26.4 0-48 21.6-48 48zM320 56c0-21.4-25.8-32-41-17l-71 73h-56c-13.2 0-24 10.8-24 24v112c0 13.2 10.8 24 24 24h56l71 73c15.2 15.2 41 4.4 41-17v-272zM386.4 151.2c18.2 18.6 18.2 48.2 0 66.8-44.2 45.6 24.4 112.4 68.8 67 54.4-55.8 54.4-144.8 0-200.8-43.6-44.6-113.8 20.8-68.8 67zM558.4 385.4c108.8-111.8 108.8-289.6 0-401.6-43.6-44.8-114 20.6-68.8 67 72.4 74.4 72.6 193 0 267.6-44.2 45.6 24.6 112.6 68.8 67zM768 620.2v-12.2h-256v256h12.2c12.8 0 25-5 34-14l195.8-196c9-9 14-21.2 14-33.8z" />
<glyph unicode="&#xe912;" glyph-name="file-image" horiz-adv-x="768" d="M768 620.118v-12.118h-256v256h12.118c13.254 0 25.254-5.372 33.94-14.058l195.882-195.882c8.687-8.687 14.059-20.687 14.060-33.942v0zM496 544c-26.4 0-48 21.6-48 48v272h-400c-26.51 0-48-21.49-48-48v-928c0-26.51 21.49-48 48-48h672c26.51 0 48 21.49 48 48v656h-272zM225.090 512c53.020 0 96-42.98 96-96s-42.98-96-96-96-96 42.98-96 96 42.982 96 96 96zM641.090 32h-512l0.97 96.97 79.030 79.030c9.372 9.372 23.598 8.402 32.97-0.97l79.030-79.030 207.030 207.030c9.372 9.372 24.568 9.372 33.942 0l79.028-79.030v-224z" />
<glyph unicode="&#xe913;" glyph-name="file-pdf" horiz-adv-x="768" d="M363.8 351.8c-10 32-9.8 93.8-4 93.8 16.8 0 15.2-73.8 4-93.8zM360.4 257.4c-15.4-40.4-34.6-86.6-56.8-125.4 36.6 14 78 34.4 125.8 43.8-25.4 19.2-49.8 46.8-69 81.6zM172.2 7.8c0-1.6 26.4 10.8 69.8 80.4-13.4-12.6-58.2-49-69.8-80.4zM496 544h272v-656c0-26.6-21.4-48-48-48h-672c-26.6 0-48 21.4-48 48v928c0 26.6 21.4 48 48 48h400v-272c0-26.4 21.6-48 48-48zM480 200.4c-40 24.4-66.6 58-85.4 107.6 9 37 23.2 93.2 12.4 128.4-9.4 58.8-84.8 53-95.6 13.6-10-36.6-0.8-88.2 16.2-154-23.2-55.2-57.4-129.2-81.6-171.6-0.2 0-0.2-0.2-0.4-0.2-54.2-27.8-147.2-89-109-136 11.2-13.8 32-20 43-20 35.8 0 71.4 36 122.2 123.6 51.6 17 108.2 38.2 158 46.4 43.4-23.6 94.2-39 128-39 58.4 0 62.4 64 39.4 86.8-27.8 27.2-108.6 19.4-147.2 14.4zM754 654l-196 196c-9 9-21.2 14-34 14h-12v-256h256v12.2c0 12.6-5 24.8-14 33.8zM605.8 143.4c8.2 5.4-5 23.8-85.6 18 74.2-31.6 85.6-18 85.6-18z" />
<glyph unicode="&#xe914;" glyph-name="file-video" horiz-adv-x="768" d="M768 620.118v-12.118h-256v256h12.118c12.73 0 24.94-5.058 33.942-14.058l195.882-195.882c8.685-8.687 14.057-20.687 14.058-33.942v0zM448 592v272h-400c-26.51 0-48-21.49-48-48v-928c0-26.51 21.49-48 48-48h672c26.51 0 48 21.49 48 48v656h-272c-26.4 0-48 21.6-48 48zM640 303.968v-223.926c0-42.89-51.886-63.996-81.942-33.942l-110.058 110.018v-76.118c0-26.51-21.49-48-48-48h-224c-26.51 0-48 21.49-48 48v224c0 26.51 21.49 48 48 48h224c26.51 0 48-21.49 48-48v-76.118l110.058 110.026c30.022 30.020 81.942 8.982 81.942-33.94z" />
<glyph unicode="&#xe915;" glyph-name="folder" d="M928 608h-384l-128 128h-320c-53.020 0-96-42.98-96-96v-576c0-53.020 42.98-96 96-96h832c53.020 0 96 42.98 96 96v448c0 53.020-42.98 96-96 96z" />
<glyph unicode="&#xe916;" glyph-name="folder-open" horiz-adv-x="1152" d="M1145.388 279.814l-144.848-248.31c-22.607-38.251-63.634-63.504-110.56-63.504-0.001 0-0.002 0-0.002 0h-799.928c-37.046 0-60.128 40.186-41.462 72.186l144.848 248.31c22.608 38.251 63.637 63.504 110.563 63.504 0 0 0 0 0.001 0h799.928c37.046 0 60.128-40.186 41.46-72.186zM304 416h656v96c0 53.020-42.98 96-96 96h-320l-128 128h-320c-53.020 0-96-42.98-96-96v-556.092l138.154 236.836c34.274 58.756 97.824 95.256 165.846 95.256z" />
<glyph unicode="&#xe917;" glyph-name="Navigation" horiz-adv-x="1280" d="M1232 224h-96v96c0 44.112-35.888 80-80 80h-368v80h96c26.51 0 48 21.49 48 48v288c0 26.51-21.49 48-48 48h-288c-26.51 0-48-21.49-48-48v-288c0-26.51 21.49-48 48-48h96v-80h-368c-44.112 0-80-35.888-80-80v-96h-96c-26.51 0-48-21.49-48-48v-288c0-26.51 21.49-48 48-48h288c26.51 0 48 21.49 48 48v288c0 26.51-21.49 48-48 48h-96v80h352v-80h-96c-26.51 0-48-21.49-48-48v-288c0-26.51 21.49-48 48-48h288c26.51 0 48 21.49 48 48v288c0 26.51-21.49 48-48 48h-96v80h352v-80h-96c-26.51 0-48-21.49-48-48v-288c0-26.51 21.49-48 48-48h288c26.51 0 48 21.49 48 48v288c0 26.51-21.49 48-48 48z" />
<glyph unicode="&#xe918;" glyph-name="News" horiz-adv-x="1152" d="M1104 736h-880c-41.716 0-77.286-26.754-90.496-64h-85.504c-26.51 0-48-21.49-48-48v-544c0-61.856 50.144-112 112-112h992c26.51 0 48 21.49 48 48v672c0 26.51-21.49 48-48 48zM96 80v496h32v-496c0-8.822-7.178-16-16-16s-16 7.178-16 16zM1056 64h-833.156c0.748 5.228 1.156 10.566 1.156 16v560h832v-576zM344 304h272c13.254 0 24 10.746 24 24v192c0 13.254-10.746 24-24 24h-272c-13.254 0-24-10.746-24-24v-192c0-13.254 10.746-24 24-24zM400 464h160v-80h-160v80zM320 184v48c0 13.254 10.746 24 24 24h272c13.254 0 24-10.746 24-24v-48c0-13.254-10.746-24-24-24h-272c-13.254 0-24 10.746-24 24zM704 184v48c0 13.254 10.746 24 24 24h208c13.254 0 24-10.746 24-24v-48c0-13.254-10.746-24-24-24h-208c-13.254 0-24 10.746-24 24zM704 472v48c0 13.254 10.746 24 24 24h208c13.254 0 24-10.746 24-24v-48c0-13.254-10.746-24-24-24h-208c-13.254 0-24 10.746-24 24zM704 328v48c0 13.254 10.746 24 24 24h208c13.254 0 24-10.746 24-24v-48c0-13.254-10.746-24-24-24h-208c-13.254 0-24 10.746-24 24z" />
<glyph unicode="&#xe919;" glyph-name="Slideshow" horiz-adv-x="1152" d="M960 32v-32c0-53.020-42.98-96-96-96h-768c-53.020 0-96 42.98-96 96v512c0 53.020 42.98 96 96 96h32v-96h-20c-6.627 0-12-5.373-12-12v0-488c0-6.627 5.373-12 12-12v0h744c6.627 0 12 5.373 12 12v0 20h96zM1044 704h-744c-6.627 0-12-5.373-12-12v0-488c0-6.627 5.373-12 12-12v0h744c6.627 0 12 5.373 12 12v0 488c0 6.627-5.373 12-12 12v0zM1056 800c53.020 0 96-42.98 96-96v-512c0-53.020-42.98-96-96-96h-768c-53.020 0-96 42.98-96 96v512c0 53.020 42.98 96 96 96h768zM528 576c0-44.182-35.818-80-80-80s-80 35.818-80 80 35.818 80 80 80 80-35.818 80-80zM384 384l79.030 79.030c9.372 9.372 24.568 9.372 33.942 0l79.028-79.030 207.030 207.030c9.372 9.372 24.568 9.372 33.942 0l143.028-143.030v-160h-576v96z" />
</font>
</defs>
</svg>
