<?xml version="1.0" encoding="utf-8"?>
<!-- Generator: Adobe Illustrator 22.1.0, SVG Export Plug-In . SVG Version: 6.00 Build 0)  -->
<svg version="1.1" id="Layer_1" xmlns="http://www.w3.org/2000/svg" xmlns:xlink="http://www.w3.org/1999/xlink" x="0px" y="0px"
	 viewBox="0 0 72 72" style="enable-background:new 0 0 72 72;" xml:space="preserve">
<path d="M65,4c1.7,0,3,1.3,3,3v58c0,1.7-1.3,3-3,3H7c-1.7,0-3-1.3-3-3V7c0-1.7,1.3-3,3-3H65 M65,0H7C3.2,0,0,3.1,0,7v58
	c0,3.9,3.2,7,7,7h58c3.8,0,7-3.1,7-7V7C72,3.1,68.8,0,65,0L65,0z"/>
</svg>
