<?xml version="1.0" encoding="utf-8"?>
<!-- Generator: Adobe Illustrator 22.1.0, SVG Export Plug-In . SVG Version: 6.00 Build 0)  -->
<svg version="1.1" id="Layer_1" xmlns="http://www.w3.org/2000/svg" xmlns:xlink="http://www.w3.org/1999/xlink" x="0px" y="0px"
	 viewBox="0 0 72 72" style="enable-background:new 0 0 72 72;" xml:space="preserve">
<style type="text/css">
	.st0{fill:#231F20;}
</style>
<path class="st0" d="M65,0H49.3h-4H26.7h-4H7C3.2,0,0,3.2,0,7v58c0,3.9,3.2,7,7,7h15.7h4h18.7h4H65c3.9,0,7-3.1,7-7V7
	C72,3.2,68.9,0,65,0z M7,68c-1.7,0-3-1.3-3-3V7c0-1.7,1.3-3,3-3h15.7v64H7z M26.7,68V4h18.7v64H26.7z M68,65c0,1.7-1.3,3-3,3H49.3V4
	H65c1.7,0,3,1.3,3,3V65z"/>
</svg>
