<?xml version="1.0" encoding="utf-8"?>
<!-- Generator: Adobe Illustrator 22.1.0, SVG Export Plug-In . SVG Version: 6.00 Build 0)  -->
<svg version="1.1" id="Layer_1" xmlns="http://www.w3.org/2000/svg" xmlns:xlink="http://www.w3.org/1999/xlink" x="0px" y="0px"
	 viewBox="0 0 72 72" style="enable-background:new 0 0 72 72;" xml:space="preserve">
<style type="text/css">
	.st0{fill:#231F20;}
</style>
<path class="st0" d="M65,0h-7.1h-4h-9.6h-4h-9.6h-4h-9.6h-4H7C3.2,0,0,3.2,0,7v58c0,3.9,3.2,7,7,7h6.1h4h9.6h4h9.6h4h9.6h4H65
	c3.9,0,7-3.1,7-7V7C72,3.2,68.9,0,65,0z M7,68c-1.7,0-3-1.3-3-3V7c0-1.7,1.3-3,3-3h6.1v64H7z M17.1,68V4h9.6v64H17.1z M30.7,68V4
	h9.6v64H30.7z M44.3,68V4h9.6v64H44.3z M68,65c0,1.7-1.3,3-3,3h-7.1V4H65c1.7,0,3,1.3,3,3V65z"/>
</svg>
